<svg width="24" height="19" viewBox="0 0 20 21" fill="none" xmlns="http://www.w3.org/2000/svg">
<path d="M12.6 0C11.4301 0.00148013 10.277 0.293206 9.23502 0.851374C8.19299 1.40954 7.29149 2.21833 6.60407 3.21176C5.91665 4.20518 5.46279 5.35508 5.27953 6.56763C5.09627 7.78018 5.18879 9.02101 5.54956 10.1889L0.2131 15.7792C0.0754468 15.9273 -0.00109978 16.1264 1.19423e-05 16.3333V20.2222C1.19423e-05 20.4285 0.0780998 20.6263 0.217097 20.7722C0.356094 20.9181 0.544615 21 0.741187 21H4.44706C4.64363 21 4.83215 20.9181 4.97115 20.7722C5.11015 20.6263 5.18824 20.4285 5.18824 20.2222V18.6667H6.67059C6.86716 18.6667 7.05568 18.5847 7.19467 18.4389C7.33367 18.293 7.41176 18.0952 7.41176 17.8889V16.3333H8.89411C9.0913 16.3345 9.281 16.2542 9.4222 16.1097L10.3023 15.1764C11.3208 15.5229 12.3988 15.6338 13.462 15.5013C14.5252 15.3689 15.5485 14.9962 16.4614 14.4091C17.3742 13.822 18.1551 13.0342 18.7501 12.1002C19.3451 11.1661 19.7402 10.1078 19.9082 8.99814C20.0762 7.88849 20.0131 6.75381 19.7232 5.6722C19.4334 4.59059 18.9237 3.58772 18.2291 2.7326C17.5346 1.87748 16.6718 1.19042 15.7 0.718692C14.7283 0.246967 13.6707 0.00177859 12.6 0ZM14.4529 7.38889C14.1597 7.38889 13.8731 7.29766 13.6294 7.12673C13.3856 6.9558 13.1956 6.71286 13.0834 6.42862C12.9712 6.14438 12.9419 5.83161 12.9991 5.52986C13.0563 5.22811 13.1974 4.95094 13.4047 4.73339C13.6121 4.51584 13.8762 4.36769 14.1637 4.30767C14.4513 4.24765 14.7493 4.27845 15.0202 4.39619C15.2911 4.51392 15.5226 4.7133 15.6854 4.96911C15.8483 5.22492 15.9353 5.52567 15.9353 5.83333C15.9353 6.24589 15.7791 6.64155 15.5011 6.93328C15.2231 7.225 14.8461 7.38889 14.4529 7.38889Z" fill="#180505"/>
</svg>
