<svg width="24" height="19" viewBox="0 0 24 19" fill="none" xmlns="http://www.w3.org/2000/svg">
<path d="M12 0C13.5913 0 15.1174 0.491665 16.2426 1.36683C17.3679 2.242 18 3.42899 18 4.66667C18 5.90434 17.3679 7.09133 16.2426 7.9665C15.1174 8.84167 13.5913 9.33333 12 9.33333C10.4087 9.33333 8.88258 8.84167 7.75736 7.9665C6.63214 7.09133 6 5.90434 6 4.66667C6 3.42899 6.63214 2.242 7.75736 1.36683C8.88258 0.491665 10.4087 0 12 0ZM12 11.6667C18.63 11.6667 24 13.755 24 16.3333V18.6667H0V16.3333C0 13.755 5.37 11.6667 12 11.6667Z" fill="#340E0E"/>
</svg>
